<svg aria-hidden="true" style="position: absolute; width: 0; height: 0; overflow: hidden;" version="1.1" xmlns="http://www.w3.org/2000/svg" xmlns:xlink="http://www.w3.org/1999/xlink">
<defs>
<symbol id="icon-arrow" viewBox="0 0 32 32">
<path d="M20.586 6.598c0.375-0.375 0.884-0.586 1.414-0.586s1.039 0.211 1.414 0.586l8 8c0.375 0.375 0.586 0.884 0.586 1.414s-0.211 1.039-0.586 1.414l-8 8c-0.377 0.364-0.882 0.566-1.407 0.561s-1.026-0.215-1.397-0.586c-0.371-0.371-0.581-0.872-0.586-1.397s0.197-1.030 0.561-1.407l4.586-4.586h-23.172c-0.53 0-1.039-0.211-1.414-0.586s-0.586-0.884-0.586-1.414c0-0.53 0.211-1.039 0.586-1.414s0.884-0.586 1.414-0.586h23.172l-4.586-4.586c-0.375-0.375-0.586-0.884-0.586-1.414s0.211-1.039 0.586-1.414z"></path>
</symbol>
<symbol id="icon-cart" viewBox="0 0 32 32">
<path d="M3.015 0c-0.495 0-0.97 0.198-1.32 0.551s-0.547 0.832-0.547 1.331c0 0.499 0.197 0.978 0.547 1.331s0.825 0.551 1.32 0.551h2.277l0.569 2.3c0.006 0.027 0.012 0.053 0.019 0.079l2.535 10.221-1.667 1.679c-2.352 2.372-0.687 6.426 2.64 6.426h16.028c0.495 0 0.97-0.198 1.32-0.551s0.547-0.832 0.547-1.331c0-0.499-0.197-0.978-0.547-1.331s-0.825-0.551-1.32-0.551h-16.028l1.867-1.882h12.294c0.347-0 0.686-0.098 0.981-0.282s0.533-0.447 0.688-0.759l5.6-11.294c0.142-0.287 0.209-0.606 0.195-0.926s-0.11-0.632-0.277-0.905c-0.167-0.273-0.401-0.498-0.678-0.654s-0.59-0.238-0.909-0.239h-20.011l-0.579-2.34c-0.101-0.407-0.334-0.768-0.662-1.027s-0.732-0.398-1.148-0.398h-3.733zM27.282 29.176c0 0.749-0.295 1.467-0.82 1.997s-1.237 0.827-1.98 0.827c-0.743 0-1.455-0.297-1.98-0.827s-0.82-1.248-0.82-1.997c0-0.749 0.295-1.467 0.82-1.996s1.237-0.827 1.98-0.827c0.743 0 1.455 0.297 1.98 0.827s0.82 1.248 0.82 1.996zM9.548 32c0.743 0 1.455-0.297 1.98-0.827s0.82-1.248 0.82-1.997c0-0.749-0.295-1.467-0.82-1.996s-1.237-0.827-1.98-0.827c-0.743 0-1.455 0.297-1.98 0.827s-0.82 1.248-0.82 1.996c0 0.749 0.295 1.467 0.82 1.997s1.237 0.827 1.98 0.827z"></path>
</symbol>
<symbol id="icon-search" viewBox="0 0 32 32">
<path stroke-linejoin="round" stroke-linecap="round" stroke-miterlimit="4" stroke-width="2.56" d="M27.52 27.001l-7.68-7.68M22.4 12.921c0 1.177-0.232 2.342-0.682 3.429s-1.11 2.075-1.942 2.907c-0.832 0.832-1.82 1.492-2.907 1.942s-2.252 0.682-3.429 0.682c-1.177 0-2.342-0.232-3.429-0.682s-2.075-1.11-2.907-1.942c-0.832-0.832-1.492-1.82-1.942-2.907s-0.682-2.252-0.682-3.429c0-2.376 0.944-4.655 2.624-6.336s3.959-2.624 6.336-2.624c2.376 0 4.655 0.944 6.336 2.624s2.624 3.959 2.624 6.336z"></path>
</symbol>
<symbol id="icon-sight" viewBox="0 0 32 32">
<path d="M16 10.182c-3.215 0-5.818 2.604-5.818 5.818s2.604 5.818 5.818 5.818c3.215 0 5.818-2.604 5.818-5.818s-2.604-5.818-5.818-5.818zM29.004 14.546c-0.669-6.066-5.484-10.88-11.549-11.549v-1.542c0-0.8-0.654-1.455-1.454-1.455s-1.454 0.655-1.454 1.455v1.542c-6.066 0.669-10.88 5.484-11.549 11.549h-1.542c-0.8 0-1.455 0.655-1.455 1.454s0.655 1.454 1.455 1.454h1.542c0.669 6.066 5.484 10.88 11.549 11.549v1.542c0 0.8 0.655 1.454 1.454 1.454s1.454-0.654 1.454-1.454v-1.542c6.066-0.669 10.88-5.484 11.549-11.549h1.542c0.8 0 1.455-0.654 1.455-1.454s-0.655-1.454-1.455-1.454h-1.542zM16 26.182c-5.629 0-10.182-4.553-10.182-10.182s4.553-10.182 10.182-10.182 10.182 4.553 10.182 10.182c0 5.629-4.553 10.182-10.182 10.182z"></path>
</symbol>
<symbol id="icon-tick" viewBox="0 0 32 32">
<path d="M8.534 2.91c1.287-0.103 2.508-0.609 3.49-1.446 1.109-0.945 2.519-1.464 3.976-1.464s2.867 0.519 3.976 1.464c0.982 0.837 2.204 1.343 3.49 1.446 1.453 0.116 2.817 0.746 3.848 1.777s1.66 2.395 1.777 3.847c0.102 1.286 0.608 2.508 1.446 3.49 0.945 1.109 1.464 2.519 1.464 3.976s-0.519 2.867-1.464 3.976c-0.837 0.982-1.343 2.204-1.446 3.49-0.116 1.453-0.746 2.817-1.777 3.848s-2.395 1.66-3.848 1.777c-1.287 0.103-2.508 0.609-3.49 1.446-1.109 0.945-2.519 1.464-3.976 1.464s-2.867-0.519-3.976-1.464c-0.982-0.837-2.204-1.343-3.49-1.446-1.453-0.116-2.817-0.746-3.848-1.777s-1.66-2.395-1.777-3.848c-0.103-1.287-0.609-2.508-1.446-3.49-0.945-1.109-1.464-2.519-1.464-3.976s0.519-2.867 1.464-3.976c0.837-0.982 1.343-2.204 1.446-3.49 0.116-1.453 0.746-2.817 1.777-3.848s2.395-1.66 3.848-1.777zM23.414 13.414c0.364-0.377 0.566-0.882 0.561-1.407s-0.215-1.026-0.586-1.397c-0.371-0.371-0.872-0.581-1.397-0.586s-1.030 0.197-1.407 0.561l-6.586 6.586-2.586-2.586c-0.377-0.364-0.882-0.566-1.407-0.561s-1.026 0.215-1.397 0.586c-0.371 0.371-0.581 0.872-0.586 1.397s0.197 1.030 0.561 1.407l4 4c0.375 0.375 0.884 0.586 1.414 0.586s1.039-0.211 1.414-0.586l8-8z"></path>
</symbol>
</defs>
</svg>
